<mxfile host="65bd71144e">
    <diagram id="4cEk40C2MJhExyrH1nWn" name="Page-1">
        <mxGraphModel dx="786" dy="322" grid="1" gridSize="10" guides="1" tooltips="1" connect="1" arrows="1" fold="1" page="1" pageScale="1" pageWidth="827" pageHeight="1169" math="0" shadow="0">
            <root>
                <mxCell id="0"/>
                <mxCell id="1" parent="0"/>
                <mxCell id="2" value="FlynnStack" style="swimlane;fontStyle=1;align=center;verticalAlign=middle;childLayout=stackLayout;horizontal=1;startSize=29;horizontalStack=0;resizeParent=1;resizeParentMax=0;resizeLast=0;collapsible=0;marginBottom=0;html=1;" vertex="1" parent="1">
                    <mxGeometry x="70" y="30" width="200" height="160" as="geometry"/>
                </mxCell>
                <mxCell id="4" value="+ push(inputs: string): void&lt;br&gt;+ peek(): string&lt;br&gt;+ pop(): string&lt;br&gt;+ isEmpty(): boolean&lt;br&gt;+ size(): number&lt;br&gt;+ show(): string&lt;br&gt;+ clearStack(): void" style="text;html=1;strokeColor=none;fillColor=none;align=left;verticalAlign=middle;spacingLeft=4;spacingRight=4;overflow=hidden;rotatable=0;points=[[0,0.5],[1,0.5]];portConstraint=eastwest;" vertex="1" parent="2">
                    <mxGeometry y="29" width="200" height="131" as="geometry"/>
                </mxCell>
            </root>
        </mxGraphModel>
    </diagram>
</mxfile>